<svg fill="none" height="45" viewBox="0 0 45 45" width="45" xmlns="http://www.w3.org/2000/svg"><path d="m45 22.5c0 12.4264-10.0736 22.5-22.5 22.5s-22.5-10.0736-22.5-22.5 10.0736-22.5 22.5-22.5 22.5 10.0736 22.5 22.5z" fill="#ddeefa"/><path d="m19.3846 11.0769h6.2308v22.5h-6.2308z" fill="#fff"/><path clip-rule="evenodd" d="m27.3814 10.7308-9.7536.0001c-.0048.907-.1784 1.7501-.5213 2.529-.3785.8634-.8959 1.4803-1.5523 1.8504-.4248.2303-.8959.4071-1.4133.5304l-1.112.2468c-2.2676.5576-3.80829 1.6351-4.62213 3.232-.7756 1.5226-1.15409 2.8672-1.13524 4.0341-.02166.7906.10972 1.9502.39379 3.4787.30116 1.6203.44786 2.9279.44029 3.9231-.00775.9869-.05795 2.1094-.15076 3.3677h13.94705v-.0103h1.1124v.0102h14.0282c-.0847-1.2564-.131-2.383-.1389-3.38-.0081-.9897.1386-2.2932.4401-3.9107.2865-1.5319.414-2.6957.3823-3.4911.0217-1.1647-.3529-2.5051-1.1236-4.0217-.811-1.5954-2.3516-2.6728-4.6221-3.232l-1.112-.2468c-.5174-.1233-.9885-.3001-1.4133-.5304-.6564-.3701-1.1738-.987-1.5523-1.8504-.3427-.7789-.5166-1.6221-.5213-2.5291zm-2.3659 4.5969c.0076.0136.0144.0278.0203.0425.0045.011.0084.0223.0119.0338.0103.0345.0159.0713.0159.1096 0 .2016-.1534.3651-.3426.3651-.0924 0-.1758-.0394-.2375-.1027h-.4633l-.0003.5064c0 .1484-.1129.2687-.2522.2687l-2.383.0001c-.1392 0-.2521-.1203-.2521-.2687v-.5065l-.4637.0001c-.0616.0633-.1451.1026-.2374.1026-.1346 0-.251-.0826-.307-.2029-.008-.0172-.0148-.0351-.0203-.0536-.01-.0343-.0154-.0708-.0154-.1086 0-.2017.1535-.3651.3427-.3651.037 0 .0724.0066.1058.0182.0217.0077.0426.0172.0621.0291.0165.01.0322.0214.0469.0341.0078.0068.0154.0138.0226.0213h.4637v-.4648c0-.1484.1129-.2687.2522-.2687h2.3829c.1392 0 .2521.1203.2521.2687v.4648h.4637c.0026-.0028.0054-.0053.0082-.0078l.0038-.0035c.0603-.0566.1388-.0914.2254-.0914.0146 0 .0289.0013.043.0031.0545.0073.1052.0279.1486.0592.0182.0131.0352.0281.0507.0446.0097.0103.0186.0215.0271.033.0092.0125.0176.0256.0252.0393zm.0203-3.261c-.0059-.0147-.0127-.0288-.0203-.0424-.0076-.0138-.016-.0269-.0252-.0394-.0085-.0115-.0174-.0226-.0271-.033-.0155-.0165-.0325-.0314-.0507-.0446-.0434-.0312-.0941-.0518-.1486-.0591-.0141-.0019-.0284-.0032-.043-.0032-.0866 0-.1651.0349-.2254.0914-.004.0038-.0082.0074-.012.0113h-.4637v-.4648c0-.1484-.1129-.2687-.2521-.2687h-2.3829c-.1393 0-.2522.1203-.2522.2687v.4648h-.4637c-.0072-.0074-.0148-.0145-.0226-.0212-.0147-.0127-.0304-.0241-.0469-.0341-.0195-.0119-.0404-.0215-.0621-.0291-.0334-.0117-.0688-.0183-.1058-.0183-.1892 0-.3427.1635-.3427.3651 0 .0379.0054.0743.0154.1086.0055.0186.0123.0365.0203.0537.056.1202.1724.2029.307.2029.0923 0 .1758-.0394.2374-.1027h.4634l.0003.5064c0 .1484.1129.2687.2521.2687h2.383c.1393 0 .2522-.1203.2522-.2687v-.5065h.4636c.0617.0634.1451.1027.2375.1027.1892 0 .3426-.1635.3426-.3651 0-.0382-.0056-.075-.0159-.1096-.0035-.0115-.0074-.0228-.0119-.0338zm-.1701 6.4193c.0264.0131.051.0297.0732.0493.032.0281.0586.0625.0793.1011.0287.0533.0454.1148.0454.1807 0 .0382-.0056.075-.0159.1095-.0035.0116-.0074.0229-.0119.0338-.0059.0147-.0127.0289-.0203.0425-.0058.0105-.0121.0206-.0189.0303-.0167.0243-.0359.0465-.0577.0656-.0222.0196-.0468.0362-.0732.0493-.0439.0219-.093.0341-.1447.0341-.0173 0-.0343-.0014-.0509-.0041-.0499-.008-.0961-.0275-.1365-.0558-.0179-.0127-.0347-.027-.0501-.0428h-.4637v.5065c0 .1483-.1129.2686-.2521.2686h-2.3829c-.1393 0-.2522-.1203-.2522-.2686v-.5065h-.4636c-.0077.0079-.0158.0154-.0241.0226-.0502.0428-.1117.0711-.1792.0783-.0112.0012-.0226.0018-.0342.0018-.0229 0-.0451-.0033-.0668-.0078-.012-.0026-.0238-.0058-.0354-.0096-.0347-.0114-.0671-.0283-.096-.0503-.0157-.0119-.0305-.0248-.0441-.0393-.0077-.0083-.0151-.0169-.0221-.0259-.0183-.0237-.0339-.0499-.0462-.078-.0082-.0188-.015-.0384-.0202-.0587-.0077-.0304-.0119-.0625-.0119-.0956 0-.0707.0192-.1364.0518-.1923.0037-.0064.0076-.0127.0117-.0189.0145-.0217.0312-.0414.0496-.0593.01-.0096.0204-.0186.0313-.0269.056-.0424.1243-.0677.1983-.0677.0115 0 .0229.0006.0342.0018.0295.0032.0579.0103.0846.021.0223.0089.0436.0202.0634.0336.0199.0135.0384.029.0552.0463h.4637v-.4648c0-.1484.1129-.2687.2521-.2687h2.383c.1393 0 .2522.1203.2522.2687v.4648h.4636c.0309-.0316.0671-.0573.1072-.0751.0201-.0089.0411-.0158.0629-.0205.0108-.0023.0219-.0041.0332-.0053.0112-.0012.0226-.0018.0342-.0018.0517 0 .1007.0122.1447.0341zm.1701 3.4911c-.0059-.0147-.0127-.0289-.0203-.0425-.0076-.0137-.016-.0268-.0252-.0393-.0085-.0115-.0174-.0227-.0271-.033-.0155-.0165-.0325-.0315-.0507-.0446-.0434-.0313-.0941-.0519-.1486-.0591-.0141-.0019-.0284-.0032-.043-.0032-.0866 0-.1651.0349-.2254.0914l-.0038.0035-.0029.0026c-.0018.0017-.0036.0034-.0053.0052h-.4637v-.4648c0-.1484-.1129-.2687-.2521-.2687h-2.3829c-.1393 0-.2522.1203-.2522.2687v.4648h-.4637c-.0072-.0075-.0148-.0145-.0226-.0212-.0147-.0127-.0304-.0241-.0469-.0342-.0195-.0118-.0404-.0214-.0621-.029-.0334-.0117-.0688-.0183-.1058-.0183-.1892 0-.3427.1635-.3427.3651 0 .0378.0054.0743.0154.1086.0055.0185.0123.0364.0203.0537.056.1202.1724.2028.307.2028.0923 0 .1758-.0393.2374-.1026h.4634l.0003.5064c0 .1484.1129.2687.2521.2687l2.383-.0001c.1393 0 .2522-.1203.2522-.2687v-.5064h.4636c.0617.0633.1451.1027.2375.1027.1892 0 .3426-.1635.3426-.3651 0-.0383-.0056-.0751-.0159-.1096-.0035-.0115-.0074-.0228-.0119-.0338zm-.1701 3.1158c.0264.0132.051.0298.0732.0493.032.0281.0586.0625.0793.1011.0287.0533.0454.1148.0454.1807 0 .0382-.0056.075-.0159.1095-.0035.0116-.0074.0229-.0119.0339-.0059.0146-.0127.0288-.0203.0424-.0058.0105-.0121.0206-.0189.0303-.0167.0243-.0359.0465-.0577.0656-.0222.0196-.0468.0362-.0732.0493-.0439.0219-.093.0341-.1447.0341-.0173 0-.0343-.0014-.0509-.004-.0499-.0081-.0961-.0276-.1365-.0559-.0179-.0127-.0347-.027-.0501-.0428h-.4637v.5065c0 .1483-.1129.2687-.2521.2687h-2.3829c-.1393 0-.2522-.1204-.2522-.2687v-.5065h-.4636c-.0077.0079-.0158.0154-.0241.0226-.0502.0428-.1117.0711-.1792.0783-.0112.0012-.0226.0018-.0342.0018-.0229 0-.0451-.0032-.0668-.0078-.012-.0026-.0238-.0058-.0354-.0096-.0347-.0114-.0671-.0283-.096-.0503-.0157-.0118-.0305-.0248-.0441-.0393-.0077-.0082-.0151-.0169-.0221-.0259-.0183-.0237-.0339-.0499-.0462-.078-.0082-.0188-.015-.0383-.0202-.0587-.0077-.0304-.0119-.0625-.0119-.0956 0-.0707.0192-.1364.0518-.1923.0037-.0064.0076-.0127.0117-.0189.0145-.0217.0312-.0414.0496-.0592.01-.0097.0204-.0187.0313-.027.056-.0424.1243-.0677.1983-.0677.0115 0 .0229.0006.0342.0018.0295.0032.0579.0104.0846.021.0223.0089.0436.0203.0634.0337.0199.0134.0384.0289.0552.0462h.4637v-.4648c0-.1483.1129-.2686.2521-.2686h2.383c.1393 0 .2522.1203.2522.2686v.4648h.4636c.0309-.0316.0671-.0573.1072-.0751.0201-.0089.0411-.0158.0629-.0204.0108-.0024.0219-.0041.0332-.0054.0112-.0011.0226-.0018.0342-.0018.0517 0 .1007.0122.1447.0341zm.1701 3.4911c-.0059-.0147-.0127-.0288-.0203-.0425s-.016-.0268-.0252-.0393c-.0085-.0115-.0174-.0226-.0271-.033-.0155-.0165-.0325-.0315-.0507-.0446-.0434-.0313-.0941-.0519-.1486-.0591-.0141-.0019-.0284-.0032-.043-.0032-.0866 0-.1651.0349-.2254.0914l-.0038.0035c-.0028.0025-.0056.0051-.0082.0078h-.4637v-.4648c0-.1484-.1129-.2687-.2521-.2687h-2.3829c-.1393 0-.2522.1203-.2522.2687v.4648h-.4637c-.0072-.0075-.0148-.0145-.0226-.0212-.0147-.0127-.0304-.0241-.0469-.0342-.0195-.0118-.0404-.0214-.0621-.029-.0334-.0117-.0688-.0183-.1058-.0183-.1892 0-.3427.1635-.3427.3651 0 .0378.0054.0743.0154.1086.0055.0185.0123.0365.0203.0537.056.1202.1724.2029.307.2029.0923 0 .1758-.0394.2374-.1027h.4634l.0003.5064c0 .1484.1129.2687.2521.2687h2.383c.1393 0 .2522-.1204.2522-.2687v-.5065h.4636c.0617.0633.1451.1027.2375.1027.1892 0 .3426-.1635.3426-.3651 0-.0383-.0056-.075-.0159-.1096-.0035-.0115-.0074-.0228-.0119-.0338zm-.1701 3.1159c.0264.0131.051.0297.0732.0493.0319.028.0586.0624.0792.101.0287.0533.0455.1148.0455.1807 0 .0382-.0057.075-.016.1096-.0034.0115-.0074.0228-.0118.0338-.006.0146-.0128.0288-.0204.0424-.0058.0105-.0121.0206-.0188.0304-.0167.0242-.036.0464-.0577.0656-.0223.0195-.0468.0361-.0732.0492-.0439.0219-.093.0341-.1448.0341-.0173 0-.0343-.0014-.0509-.004-.0499-.008-.0961-.0276-.1364-.0559-.018-.0126-.0347-.027-.0501-.0428h-.4637v.5065c0 .1484-.1129.2687-.2522.2687h-2.3829c-.1392 0-.2521-.1203-.2521-.2687v-.5065h-.4637c-.0077.0079-.0157.0154-.0241.0226-.0501.0428-.1117.0711-.1791.0783-.0113.0012-.0227.0018-.0342.0018-.023 0-.0451-.0032-.0668-.0078-.012-.0026-.0238-.0058-.0354-.0096-.0347-.0114-.0671-.0283-.096-.0503-.0157-.0118-.0306-.0248-.0441-.0393-.0077-.0082-.0151-.0169-.0221-.0259-.0184-.0237-.0339-.0499-.0463-.078-.0082-.0187-.0149-.0383-.0201-.0586-.0078-.0305-.0119-.0626-.0119-.0957 0-.0706.0192-.1364.0518-.1923.0037-.0064.0075-.0127.0117-.0189.0145-.0216.0311-.0414.0496-.0592.0099-.0096.0203-.0187.0313-.027.056-.0424.1243-.0676.1982-.0676.0116 0 .023.0005.0342.0018.0295.0031.0579.0103.0847.0209.0223.009.0435.0203.0634.0337.0198.0134.0383.0289.0552.0462h.4636v-.4647c0-.1484.113-.2687.2522-.2687h2.383c.1392 0 .2521.1203.2521.2687v.4647h.4637c.0308-.0316.0671-.0573.1072-.0751.02-.0089.041-.0158.0628-.0204.0109-.0024.022-.0041.0332-.0053.0113-.0012.0227-.0018.0342-.0018.0517 0 .1008.0121.1448.0341z" fill="#fdd199" fill-rule="evenodd"/></svg>