<svg fill="none" height="45" viewBox="0 0 44 45" width="44" xmlns="http://www.w3.org/2000/svg" xmlns:xlink="http://www.w3.org/1999/xlink"><mask id="a" height="45" maskUnits="userSpaceOnUse" width="44" x="0" y="0"><path d="m14.7287 43.4452 3.2842.8655c1.2932.2354 2.6255.3594 3.9871.3594 7.4006 0 13.9477-3.6339 17.9355-9.2051l1.7429-2.8829c1.4847-2.9455 2.3216-6.2698 2.3216-9.7891 0-12.0823-9.8497-21.876984-22-21.876984-12.15028 0-22 9.794684-22 21.876984 0 9.5482 6.15196 17.6663 14.7287 20.6522z" fill="#ddeefa"/></mask><g mask="url(#a)"><path d="m14.7287 43.4452 3.2842.8655c1.2932.2354 2.6255.3594 3.9871.3594 7.4006 0 13.9477-3.6339 17.9355-9.2051l1.7429-2.8829c1.4847-2.9455 2.3216-6.2698 2.3216-9.7891 0-12.0823-9.8497-21.876984-22-21.876984-12.15028 0-22 9.794684-22 21.876984 0 9.5482 6.15196 17.6663 14.7287 20.6522z" fill="#ddeefa"/><path d="m14.6392 44.045 3.2642.2536c1.2853.069 2.6095.1053 3.9628.1053 7.3557 0 13.8629-1.065 17.8265-2.6978l1.7323-.8449c1.4756-.8633 2.3074-1.8375 2.3074-2.8689 0-3.5411-9.7898-6.4117-21.8662-6.4117-12.07637 0-21.8662 2.8706-21.8662 6.4117 0 2.7983 6.11455 5.1775 14.6392 6.0527z" fill="#fdd199"/><path d="m37.0001 17.3769c0 4.7392-3.8689 19.4254-8.6423 19.4254-1.4257 0-2.7708-2.3641-3.9552-5.0249-.9278-2.0844-3.8765-2.0861-4.8065-.0027-1.1881 2.662-2.5362 5.0276-3.9624 5.0276-4.7658 0-8.63468-14.6861-8.63468-19.4254 0-4.7467 3.86888-8.59394 8.63468-8.59394 2.5159 0 4.7886 1.07331 6.3697 2.78154 1.5733-1.70829 3.8384-2.78154 6.3543-2.78154 4.7735-.00006 8.6424 3.84724 8.6424 8.59394z" fill="#fff"/><path d="m21 17.3211v.0053c-3.0362 0-5.5 2.4489-5.5 5.4666 0-3.0195-2.4629-5.4666-5.5-5.4666v-.0053c3.0361 0 5.5-2.4489 5.5-5.4666 0 3.0518 2.4947 5.4666 5.5 5.4666z" fill="#f7cd66"/></g></svg>