<svg fill="none" height="44" viewBox="0 0 43 44" width="43" xmlns="http://www.w3.org/2000/svg"><path d="m14.096 42.8213 3.1431.833c1.2375.2265 2.5127.3458 3.8158.3458 7.0827 0 13.3485-3.4973 17.1649-8.8591l1.6681-2.7746c1.4209-2.8348 2.2218-6.0342 2.2218-9.4212 0-11.6283-9.4266-21.05482-21.0548-21.05482-11.62833 0-21.0549 9.42652-21.0549 21.05482 0 9.1893 5.88766 17.0023 14.096 19.8761z" fill="#ddeefa"/><path d="m30.3121 6.01651c.1534.31995.4504.54837.8839.68037-.099.25901-.2604.82586-.0449 1.37293.1687.42823.53.74886 1.0739.95296l1.6058 1.19033c.047.2887.3385 1.5003 1.9091 1.5613.0167.1858.0874.529.3702.7983.2972.2831.7426.402 1.3212.3585.5306-.8566.8378-1.8663.8378-2.94799 0-3.09667-2.5103-5.60699-5.607-5.60699-.845 0-1.6458.18812-2.3644.52284-.077.22241-.1907.68974.0144 1.11745z" fill="#d6d8da"/><path d="m37.5113 12.7965c-1.7203.1782-1.6469-1.1488-1.6469-1.1488-1.7954 0-1.9134-1.506-1.9134-1.506l-1.664-1.23349c-1.7491-.64367-.9141-2.29694-.9141-2.29694-1.5717-.37606-.9098-1.78286-.9072-1.78827-2.0051.85447-3.4108 2.84307-3.4108 5.1602 0 3.0967 2.5104 5.607 5.607 5.607 2.0709 0 3.8784-1.1236 4.8494-2.7937z" fill="#d6d8da"/><path d="m2.30391 8.82329c-.00002-.00001.00003.00001 0 0l-.33051-1.01363c-.51245-1.57129-.31101-3.28067.55249-4.68987 1.01673-1.65928 2.85734-2.690102 4.80339-2.690102h1.63728c-.27886.273023-.45237.653122-.45237 1.074222 0 .42109.17351.80119.45237 1.07421h-1.63728c-1.2039 0-2.34257.63766-2.97155 1.66418-.53418.87175-.65879 1.92921-.34177 2.90125l.29796.91369c-.00001.00001 0-.00001 0 0l3.1889 9.77936c-.33129-.2043-.7468-.2683-1.14796-.1374-.42831.1397-.73983.4697-.8745.8653z" fill="#aeb1b6"/><path d="m22.7081 4.47657c-.0406-.07923-.0832-.1577-.1301-.23427-.6291-1.02643-1.7677-1.66418-2.9715-1.66418h-1.6373c.2789-.27302.4524-.65312.4524-1.07421 0-.4211-.1735-.801199-.4524-1.074222h1.6373c1.8102 0 3.5287.892322 4.5782 2.352362.0788.10945.1542.22177.2251.33754.8635 1.40921 1.065 3.11859.5526 4.68987l-3.507 10.75514c-.1347-.3956-.4461-.7256-.8745-.8653-.4001-.1305-.8161-.0672-1.148.1375l1.5488-4.7497 1.9381-5.94365c.2894-.88751.2108-1.84622-.2117-2.66978z" fill="#aeb1b6"/><path d="m31.3727 6.61201c-1.3564.51915-2.32 1.83215-2.32 3.37112 0 1.99337 1.616 3.60937 3.6094 3.60937 1.309 0 2.4545-.6973 3.0873-1.7403 0 .0005.0001.0009.0002.0014.3312-.5455.5219-1.1857.5219-1.87045 0-1.9934-1.616-3.60937-3.6094-3.60937-.4545 0-.889.08471-1.2894.23823z" fill="#5d626d"/><path d="m10.2186 3.00781h-.37241c-.83058 0-1.5039-.67332-1.5039-1.5039 0-.83059.67332-1.50391 1.5039-1.50391h.37241c.8305 0 1.5039.67332 1.5039 1.50391 0 .83058-.6734 1.5039-1.5039 1.5039z" fill="#11663c"/><path d="m16.7173 3.00781h.3724c.8305 0 1.5039-.67332 1.5039-1.5039 0-.83059-.6734-1.50391-1.5039-1.50391h-.3724c-.8306 0-1.5039.67332-1.5039 1.50391 0 .83058.6733 1.5039 1.5039 1.5039z" fill="#11663c"/><path clip-rule="evenodd" d="m32.6621 16.995c-.4433 0-.834-.2238-1.0661-.5645.0492 1.7587.334 3.5037.8385 5.1837l-.0003.0008c.4048 1.3481.951 2.6545 1.6335 3.8919l2.7051 4.9033c.8257 1.4969 1.3074 3.1051 1.4472 4.7307.6244-.8771 1.182-1.8049 1.6681-2.7746-.2908-1.0251-.7019-2.0291-1.2342-2.9939l-2.705-4.9033c-.6276-1.1376-1.125-2.3409-1.4892-3.5828l-.002-.0009c-.4263-1.4542-.6677-2.962-.7131-4.4813-.2295.3552-.6282.5909-1.0825.5909zm-18.1199 19.1403c0 .1375.0026.2743.0074.4106.0923 2.6922 1.0865 5.1597 2.6896 7.1082-1.0789-.1975-2.1286-.4778-3.1432-.833-.9687-1.7746-1.5631-3.781-1.6797-5.9126-.014-.2561-.0225-.5136-.0225-.7731v-4.7519c.686.2771 1.4625.2772 2.1484 0z" fill="#aeb1b6" fill-rule="evenodd"/><path d="m14.8315 28.3308c-1.0227 0-1.7045 0-2.7271 0-1.0139 0-1.9738-.2865-2.79117-.7942l1.72187 2.854c1.1049 1.8314 3.7609 1.8314 4.8658 0l1.7218-2.854c-.8175.5076-1.7774.7942-2.7912.7942z" fill="#11663c"/><path d="m32.6621 13.5414c.6018 0 1.1114-.3922 1.2891-.9346v-2.465c0-.71186-.5772-1.28902-1.2891-1.28902s-1.2891.57716-1.2891 1.28902v2.465c.1777.5424.6872.9346 1.2891.9346z" fill="#343b48"/><path d="m32.6621 13.4731c-.7119 0-1.2891-.5771-1.2891-1.289v3.6936c0 .7119.5772 1.289 1.2891 1.289s1.2891-.5771 1.2891-1.289v-3.6936c0 .7119-.5772 1.289-1.2891 1.289z" fill="#343b48"/><path d="m8.21096 18.5403 1.72708 5.2963c.13276.4068.37116.7556.67886 1.0208 0 0 .0001 0 0 0 .4035.3476.9264.5513 1.4876.5513h2.7271c.989 0 1.8597-.6318 2.1663-1.5722l1.7271-5.2962c.2575-.7896 1.1063-1.2212 1.896-.9635.7897.2574 1.221 1.1064.9635 1.896l-1.727 5.2963c-.7114 2.1816-2.7311 3.6474-5.0259 3.6474h-2.7271c-1.1969 0-2.31853-.3994-3.21918-1.0906-.00002-.0001.00003.0001 0 0-.8262-.634-1.46645-1.5129-1.80685-2.5567l-1.72708-5.2964c-.25756-.7897.17385-1.6386.96353-1.896.78968-.2577 1.63848.1738 1.89604.9635z" fill="#198751"/></svg>