<svg fill="none" height="44" viewBox="0 0 44 44" width="44" xmlns="http://www.w3.org/2000/svg"><circle cx="22" cy="22" fill="#ddeefa" r="22"/><path d="m19.1503 20.8021c0 3.6114-2.9853 6.539-6.6678 6.539-3.68249 0-6.6678-2.9276-6.6678-6.539s2.98531-4.9442 6.6678-4.9442c3.6825 0 6.6678 1.3328 6.6678 4.9442z" fill="#fff"/><path d="m10.4181 21.0093-3.48573 3.4177c.4191.6159.94182 1.1581 1.54395 1.6026l3.53108-3.4624c.4389-.4302.4389-1.1278-.0001-1.5581-.4388-.4302-1.1504-.4301-1.5892.0002z" fill="#eaebec"/><path d="m38.1743 20.8021c0 3.6114-2.9854 6.539-6.6679 6.539s-6.6678-2.9276-6.6678-6.539 2.9853-4.9442 6.6678-4.9442 6.6679 1.3328 6.6679 4.9442z" fill="#fff"/><path d="m29.5096 21.0093-3.5262 3.4575c.4235.6126.9503 1.1509 1.5556 1.591l3.56-3.4906c.4388-.4302.4388-1.1279-.0001-1.5581s-1.1505-.4301-1.5893.0002z" fill="#eaebec"/><path d="m40.0444 17.9457h-1.4275c-.4118-.7528-1.0063-1.3889-1.7745-1.8884-1.3281-.8636-3.1233-1.3014-5.3361-1.3014-2.2126 0-4.0079.4378-5.336 1.3014-.9988.6494-1.7047 1.5295-2.0959 2.5972-.5873-.2002-1.2902-.3102-2.08-.3102-.7899 0-1.4928.11-2.0801.3102-.3912-1.0677-1.0971-1.9477-2.0959-2.5972-1.328-.8636-3.1233-1.3014-5.336-1.3014-2.2128 0-4.00806.4378-5.33608 1.3014-.76822.4995-1.36271 1.1356-1.77454 1.8884h-1.42743c-.62064 0-1.12379.4933-1.12379 1.1017 0 .6085.50315 1.1018 1.12379 1.1018h.77668c-.0197.2126-.03026.4299-.03026.6526 0 4.2132 3.49528 7.6408 7.79163 7.6408 4.2603 0 7.7323-3.3706 7.7902-7.5352.1903-.1434.803-.3596 1.7218-.3596.9187 0 1.5313.2161 1.7217.3595.0579 4.1646 3.5299 7.5352 7.7902 7.5352 4.2964 0 7.7916-3.4277 7.7916-7.6408 0-.2226-.0105-.44-.0302-.6526h.7767c.6207 0 1.1238-.4933 1.1238-1.1018 0-.6083-.5031-1.1016-1.1238-1.1016zm-27.562 8.2934c-3.05703 0-5.54405-2.4392-5.54405-5.4373 0-1.3224.47438-2.2737 1.45028-2.9082.93987-.6112 2.35547-.9342 4.09377-.9342s3.1538.323 4.0937.9342c.9759.6346 1.4503 1.5858 1.4503 2.9082 0 2.9981-2.487 5.4373-5.544 5.4373zm19.0239 0c-3.057 0-5.544-2.4392-5.544-5.4373 0-1.3224.4744-2.2737 1.4503-2.9082.9399-.6112 2.3555-.9342 4.0937-.9342s3.1539.323 4.0938.9342c.9759.6346 1.4503 1.5858 1.4503 2.9082 0 2.9981-2.4871 5.4373-5.5441 5.4373z" fill="#198751"/></svg>