<svg fill="none" height="49" viewBox="0 0 52 49" width="52" xmlns="http://www.w3.org/2000/svg" xmlns:xlink="http://www.w3.org/1999/xlink"><mask id="a" height="40" maskUnits="userSpaceOnUse" width="42" x="0" y="9"><path d="m41.6003 9.4231h-40.843708v39.4872h40.843708z" fill="#fff"/></mask><path d="m29.016 44c12.2186 0 22.1237-9.8497 22.1237-22 0-12.15026-9.9051-22-22.1237-22s-22.12367 9.84974-22.12367 22c0 12.1503 9.90507 22 22.12367 22z" fill="#ddeefa"/><g mask="url(#a)"><path d="m3.94763 9.69417c10.26707 0 16.57117.51843 27.41127 1.23373h2.492c1.9826 0 3.8841.7801 5.2864 2.1684 1.4023 1.3882 2.1897 3.2718 2.1897 5.2354 0 4.4299-3.3764 13.5734-1.2463 28.3811 0 0-1.8839 2.1972-5.0448 2.1972-3.1608 0-4.9233-2.1972-4.9233-2.1972l-.9718-5.7628c-.177-1.0916-.4782-2.1594-.8968-3.1838-2.1931-5.4171-.6978-9.2671.6228-14.4992-10.4537 2.5915-17.7676 2.468-24.91974 2.468 0 0-2.947548-1.1435-2.947548-7.4039s2.947548-8.6375 2.947548-8.6375z" fill="#fdd199"/><path d="m41.327 18.3321c0 2.3692-1.5203 9.4893-1.5203 11.106h-12.4596c.1248-.8021.1747-.876 1.5078-6.1701-2.8744.713-5.7862 1.2692-8.7218 1.6657v-14.7337c12.0114.7282 9.1455.7282 13.7183.7282 0 1.9636.7874 3.8466 2.1897 5.2354 1.4017 1.3883 3.3027 2.1685 5.2859 2.1685z" fill="#198751"/><g fill="#11663c"><path d="m22.6371 10.3607v14.203c-.8351.1359-1.6571.2589-2.4921.37v-14.7337z"/><path d="m40.0806 26.9697c-.1867 1.3082-.1742 1.3082-.299 2.468 0 .1235.5605 0-12.4596 0 .1492-.8315.3404-1.6551.573-2.468z"/></g></g><path d="m3.94755 9.69336c10.26705 0 16.57125.51844 27.41125 1.23374h2.492c1.9826 0 3.8841.7801 5.2864 2.1684 1.4023 1.3882 2.1897 3.2718 2.1897 5.2354 0 4.4299-4.8298 7.0011-2.6991 21.8088 0 0-.0936 1.782-3.2539 1.782-3.1602 0-2.7353 0-2.7353 0l-3.4973-.972c-.177-1.0915-.4782-2.1594-.8968-3.1838-2.1931-5.4171-.6978-9.2671.6228-14.4991-10.4537 2.5915-17.7676 2.4679-24.91975 2.4679 0 0-2.94755-1.1434-2.94755-7.4038s2.94755-8.63754 2.94755-8.63754z" fill="#fdd199"/><path d="m41.3267 18.3313c0 2.3693-1.5203 9.4894-1.5203 11.1061h-12.4596c.1248-.8022.1748-.8761 1.5078-6.1702-2.8743.713-5.7861 1.2693-8.7218 1.6658v-14.7338c12.0115.7283 9.1456.7283 13.7184.7283 0 1.9636.7874 3.8466 2.1897 5.2354 1.4017 1.3883 3.3026 2.1684 5.2858 2.1684z" fill="#198751"/><g fill="#11663c"><path d="m22.6368 10.36v14.203c-.835.1359-1.657.2589-2.492.37v-14.7338z"/><path d="m40.0808 26.9692c-.1866 1.3082-.1741 1.3082-.2989 2.468 0 .1235.5604 0-12.4596 0 .1492-.8315.3403-1.6551.5729-2.468z"/></g></svg>