<svg fill="none" height="44" viewBox="0 0 45 44" width="45" xmlns="http://www.w3.org/2000/svg" xmlns:xlink="http://www.w3.org/1999/xlink"><mask id="a" height="44" maskUnits="userSpaceOnUse" width="45" x="0" y="0"><path d="m22.0732 44c12.1503 0 22-9.8497 22-22 0-12.15026-9.8497-22-22-22-12.15022 0-21.9999578 9.84974-21.9999578 22 0 12.1503 9.8497378 22 21.9999578 22z" fill="#fff"/></mask><path d="m22.0732 44c12.1503 0 22-9.8497 22-22 0-12.15026-9.8497-22-22-22-12.15022 0-21.9999578 9.84974-21.9999578 22 0 12.1503 9.8497378 22 21.9999578 22z" fill="#ddeefa"/><g mask="url(#a)"><path d="m30.903 28.0088-4.963 2.9847-1.6116 3.5905 6.7731 1.1406 4.7374-4.7374z" fill="#479f74"/><path d="m25.9671 25.0312-3.0704 1.0922-8.0481 8.048.2623 1.716 7.0378-1.6703 2.1797.3672 6.5746-6.5752z" fill="#198751"/><path d="m22.4947 20.5899-3.8167 1.8379-2.4798 2.4798-4.8835 4.8834-2.16895 4.1473c.37287.55.84785 1.0221 1.40175 1.3956.9438.6363 2.0889.9821 3.2967.8247.3215-.0361.7-.1416 1.2675-.2725l1.0865-1.0864 9.7697-9.7697c-.198-.1822-2.4917-1.2427-3.4732-4.4401z" fill="#198751"/><path d="m16.1981 21.4586-1.2433-1.4779-4.6877-1.1023c-.0084.7734.0062 1.5445-.0513 2.3111-.2183 2.9108-.78127 5.7669-1.69343 8.5197-.17995.5421-.25779 1.0898-.23748 1.6624.01974.9302.34805 1.8102.86138 2.5672l7.05243-7.0524 2.4798-2.4798-2.4798-2.948z" fill="#11663c"/><path d="m21.1443-3.85051h-9.8848c-.264 0-.5167.14949-.7023.41574-.1856.26457-.2888.62559-.2871 1.00016l-.0079 18.43491 1.6528 1.4046h8.716l1.5022-1.4046v-18.44676c0-.7762-.4423-1.40461-.9895-1.40461z" fill="#fdd199"/><path d="m22.1337 18.2772v-1.8626h-11.871v1.9783c0 .3192.0068.2814.0039.4857l5.931 3.8979 2.4798 1.6303 3.8167-3.8168c-.2335-.7609-.3604-1.5851-.3604-2.3128z" fill="#479f74"/></g><path d="m40.0716 32.2422h-2.152c-.198-.1196-2.2785-1.3748-2.0805-1.2552l-4.2313 2.2531-.506 2.4843c.1986.0332 2.9367.4947 2.7382.4614.0541.0085.1088.0135.1641.0135h6.0675c1.0904 0 1.9783-.8879 1.9783-1.9783s-.8879-1.9788-1.9783-1.9788z" fill="#fdd199"/></svg>