<svg fill="none" height="44" viewBox="0 0 44 44" width="44" xmlns="http://www.w3.org/2000/svg" xmlns:xlink="http://www.w3.org/1999/xlink"><mask id="a" height="43" maskUnits="userSpaceOnUse" width="44" x="0" y="1"><path d="m21.5199 43.8966c11.8851 0 21.5199-9.5809 21.5199-21.3996s-9.6348-21.39959-21.5199-21.39959c-11.88512 0-21.5199 9.58089-21.5199 21.39959s9.63478 21.3996 21.5199 21.3996z" fill="#fff"/></mask><path d="m21.5199 43.9999c11.8851 0 21.5199-9.5809 21.5199-21.3996s-9.6348-21.39962-21.5199-21.39962c-11.88512 0-21.5199 9.58092-21.5199 21.39962s9.63478 21.3996 21.5199 21.3996z" fill="#ddeefa"/><g mask="url(#a)"><path d="m27.1394.357746c-1.9539-.4186639-3.867-.458171-5.6752-.17833-.1931.02963-1.0302.175038-1.2211.240883-5.3778 1.856831-9.2933 6.707951-9.7662 12.551101l-.1617 2.0001c-.048.5948-.2477 1.1671-.5799 1.6642l-3.5414 5.2983c-.39674.5932-.33108 1.4146.28031 1.9578.27424.2436.64284.3556 1.01088.3556h2.37657c.25764 0 .46024.2178.44034.4735l-.1821 2.3276c-.32169 4.1153 2.8837 7.4087 6.6618 7.5223.4806.0142.8751.4.8751.8785v4.0966s-.283 6.0479.4244 6.0479c1.3723 0 13.4411.0153 14.474-.5932l-.0927-14.2719c0-.997.431-1.9506 1.1935-2.6135 3.0917-2.687 4.9689-6.5861 4.9689-10.8095v-2.5449c0-6.87094-4.7316-12.95666-11.4861-14.403603z" fill="#198751"/></g><path d="m27.1394.357502c-1.9539-.4186641-3.867-.458171-5.6752-.17833-.1931.02963-1.0302.175038-1.2211.240883-5.3778 1.856825-9.2933 6.707955-9.7662 12.551145l-.1617 2c-.048.5948-.2477 1.1671-.5799 1.6643l-3.5414 5.2983c-.39674.5931-.33108 1.4146.28031 1.9578.27424.2436.64284.3555 1.01088.3555h2.37657c.25764 0 .46024.2179.44034.4736l-.1821 2.3276c-.32169 4.1153 2.8837 7.4086 6.6618 7.5222.4806.0143.8751.4.8751.8785v4.0967s3.0548 1.3849 3.7622 1.3849c1.3723 0 7.4078 0 8.4407-.608l2.6028-9.5936c0-.997.431-1.9506 1.1935-2.6135 3.0917-2.687 4.9689-6.5861 4.9689-10.8095v-2.5449c0-6.87094-4.731-12.95666-11.4855-14.403598z" fill="#198751"/><path d="m36.1014 13.8672c0 .7901-.4138 1.4837-1.0373 1.8788-.4299.2721-.6379.7934-.4619 1.2686.1236.3347.1915.6957.1915 1.0727 0 1.0431-.5165 1.966-1.3094 2.5295-.5386.3825-.5855 1.1638-.1175 1.6286l.6439.6403c.6439.6404.6914 1.6829.0712 2.3458-.6517.6952-1.747.71-2.4169.0439l-3.2191-3.2012c-.2693-.2678-.634-.4176-1.0148-.4176-.8817.0011-2.4345.0017-2.4345.0017-.9794 0-1.8121-.6255-2.1156-1.4969-.1511-.4346-.5584-.7287-1.0208-.7287h-3.6661c-1.2365 0-2.2386-.9964-2.2386-2.2261v-.0121c.0033-.6035-.4707-1.1007-1.0776-1.1007h-.1457c-1.2366 0-2.2386-.9964-2.2386-2.2261 0-.3901.1009-.7566.2781-1.0754.1843-.3315.1716-.7424-.0287-1.064-.3179-.5103-.5011-1.1117-.5011-1.75585 0-1.36957.8288-2.546 2.0152-3.06124.2875-.12456.4894-.38739.5281-.69686.0303-.24088.0733-.507.1291-.66723.4535-1.31086 1.7039-2.25244 3.1761-2.25244h.4304c.6439 0 1.2454.17997 1.7563.49274.3333.20412.7599.20412 1.0931 0 .511-.31277 1.1125-.49274 1.7564-.49274h.3079c.4828 0 .9414.10096 1.3563.28368.2869.1262.6108.1262.8972 0 .415-.18217.8735-.28368 1.3563-.28368h.3079c1.1312 0 2.1316 1.24172 2.7397 2.21129.4403.70125 1.2112 1.12814 2.0422 1.12814 1.8545 0 3.3576 1.49468 3.3576 3.33889 0 .4324-.0828.845-.2329 1.2242-.1539.3879-.0695.8302.2208 1.1309.3857.4.6224.9426.6224 1.5402z" fill="#78c7a0"/><path d="m31.2278 14.8391c-.4878 0-.884.3934-.884.879v.7567c0 .5542-.4536 1.0052-1.0109 1.0052-.5479 0-.9932-.4367-1.0081-.9783v-7.48822c0-1.52322-1.2465-2.76275-2.7783-2.76275-1.5317 0-2.7782 1.23953-2.7782 2.76275v5.02452c0 .5542-.4536 1.0052-1.0109 1.0052s-1.0109-.451-1.0109-1.0052v-5.02452c0-1.52322-1.2465-2.76275-2.7783-2.76275s-2.7783 1.23953-2.7783 2.76275v3.65112c0 .485.3957.879.884.879s.884-.3934.884-.879v-3.65112c0-.5542.4536-1.00524 1.0109-1.00524s1.0108.45104 1.0108 1.00524v5.02452c0 1.5232 1.2465 2.7627 2.7783 2.7627s2.7783-1.2395 2.7783-2.7627v-5.02452c0-.5542.4536-1.00524 1.0109-1.00524s1.0109.45104 1.0109 1.00524v6.67722c0 .0093-.0028.0176-.0028.0269v.7567c0 .0093.0028.0175.0028.0268v.0044c0 .0615.0066.1213.0187.1795.1104 1.4239 1.2973 2.5525 2.7568 2.5525 1.5318 0 2.7783-1.2395 2.7783-2.7627v-.7567c0-.4856-.3957-.879-.884-.879z" fill="#fff"/></svg>