<svg width="45" height="45" viewBox="0 0 60 60" fill="none" xmlns="http://www.w3.org/2000/svg">
  <mask id="mask0_1755_1418" style="mask-type:alpha" maskUnits="userSpaceOnUse" x="0" y="2"
    width="60" height="58">
    <path fill-rule="evenodd" clip-rule="evenodd"
      d="M56.3794 39.4102C54.2168 37.3001 51.2602 36 48 36C41.3726 36 36 41.3726 36 48C36 51.2602 37.3001 54.2168 39.4102 56.3795C41.5895 58.6131 44.6328 60 48 60C54.6274 60 60 54.6274 60 48C60 44.6328 58.6131 41.5895 56.3794 39.4102ZM37.307 57.037C35.2439 54.5983 34 51.4444 34 48C34 40.268 40.268 34 48 34C51.4444 34 54.5983 35.2439 57.037 37.307C57.665 34.9775 58 32.5279 58 30C58 18.8679 51.5036 9.25304 42.095 4.73989C41.8166 3.18206 40.4617 2 38.8322 2H30H20.8745C19.1915 2 17.8013 3.26097 17.5877 4.89455C8.35071 9.47013 2 18.9934 2 30C2 34.3171 2.977 38.4059 4.72196 42.0576C3.23798 45.7649 1.73545 49.5227 0.642672 52.2567C-0.144821 54.2269 1.307 56.3676 3.42878 56.3676H20.5566C23.5069 57.4243 26.6862 58 30 58C32.5279 58 34.9775 57.665 37.307 57.037Z"
      fill="white" />
  </mask>
  <g mask="url(#mask0_1755_1418)">
    <circle cx="30" cy="30" r="28" fill="#DDEEFA" />
    <path
      d="M46.137 15.8853C45.7839 14.7469 44.7501 13.983 43.5644 13.983C43.2914 13.983 43.0212 14.024 42.7588 14.1069L41.9558 14.3659V5.59138C41.9558 3.43027 40.6203 2.17031 38.5909 2.17031H21.4045C19.333 2.17031 17.8788 3.39082 17.8788 5.59138V22.3761C15.9996 23.1971 14.689 23.7794 14.4073 23.9227C12.139 25.0849 10.4277 27.7521 10.0421 28.8287C9.68805 29.636 3.63215 44.7774 0.64268 52.2567C-0.144814 54.2269 1.30701 56.3676 3.42878 56.3676H20.912C20.912 56.3676 26.2192 54.1304 29.0432 51.0315C30.2333 49.7265 31.1837 47.9582 31.8424 46.498H38.7621C40.5832 46.498 41.9568 45.3175 41.9568 42.9631V40.962H44.3052C45.7921 40.962 47.0015 39.7464 47.0015 38.2515C47.0015 36.7565 45.7919 35.541 44.3052 35.541H41.9568V34.6366H44.3692C45.8561 34.6366 47.0656 33.4204 47.0656 31.9261C47.0656 30.4311 45.856 29.2145 44.3692 29.2145H41.9568V28.3112H44.3692C45.8561 28.3112 47.0656 27.095 47.0656 25.6001C47.0656 24.1051 45.856 22.8891 44.3692 22.8891H41.9568L41.9567 20.044L44.3692 19.2794C45.0559 19.0649 45.6191 18.5916 45.9532 17.95C46.2867 17.31 46.352 16.5765 46.137 15.8853ZM39.5348 43.5264H24.4946C24.405 44.0986 24.2962 44.6847 24.1394 45.2904C23.1388 49.1549 19.8438 51.333 19.7035 51.4242C19.5748 51.5086 19.4294 51.5486 19.2864 51.5486C19.035 51.5486 18.7869 51.4242 18.6389 51.1952C18.4075 50.8352 18.5102 50.3573 18.8677 50.123C18.8965 50.1053 21.7963 48.1657 22.6488 44.898C23.5555 41.4247 23.103 38.3457 23.0987 38.3147C23.0893 38.2492 23.0909 38.1863 23.0981 38.1224H31.8688C33.6673 38.1224 35.4643 37.0341 35.4643 34.8958C35.4643 32.7575 33.8808 31.4097 31.8688 31.4097H16.9755V29.8602H20.2924V4.93793H24.3458C24.3602 5.92789 24.9801 6.47965 25.8663 6.47965H33.9694C34.8374 6.47965 35.4076 5.91016 35.4209 4.93793H39.5345L39.5348 43.5264Z"
      fill="#FDD199" />
    <path
      d="M17.5592 5.33333C17.5592 3.49238 19.0435 2 20.8745 2H38.8322C40.6631 2 42.1474 3.49238 42.1474 5.33333V43.3889C42.1474 45.2298 40.6631 46.7222 38.8322 46.7222H20.8745C19.0435 46.7222 17.5592 45.2298 17.5592 43.3889V5.33333Z"
      fill="#343B48" />
    <path d="M20.322 4.77778H39.661V43.6667H20.322V4.77778Z" fill="white" />
    <path
      d="M24.1898 4.77778H35.7932C35.7932 5.69825 35.051 6.44444 34.1355 6.44444H25.8474C24.9319 6.44444 24.1898 5.69825 24.1898 4.77778Z"
      fill="#343B48" />
    <path
      d="M15.3491 31.4444H32.4779C34.3089 31.4444 35.7932 32.9368 35.7932 34.7778C35.7932 36.6187 34.3089 38.1111 32.4779 38.1111H23.1431C23.3279 39.4151 23.1337 43.5022 22.7532 44.7778C21.9796 47.8333 18.7799 50.6112 17.5593 50.6112C16.3386 50.6112 15.3491 47.5973 15.3491 44.2222V31.4444Z"
      fill="#FDD199" />
    <path
      d="M31.9567 18.0936V13.9286H27.8137V18.0936H23.6712V22.2585H27.8137V26.4235H31.9567V22.2585H36.0992V18.0936H31.9567Z"
      fill="#198751" />
    <circle cx="48" cy="48" r="13" fill="#216ECF" stroke="white" stroke-width="2" />
    <path
      d="M40.4087 50.7508H43.298C43.5858 50.7508 43.8053 50.8098 43.9566 50.9279C44.1079 51.046 44.1836 51.2065 44.1836 51.4095C44.1836 51.5903 44.1227 51.7434 44.0009 51.8689C43.8828 51.9943 43.702 52.0571 43.4585 52.0571H39.3847C39.108 52.0571 38.8921 51.9814 38.7371 51.8301C38.5821 51.6752 38.5046 51.4943 38.5046 51.2877C38.5046 51.1549 38.5545 50.9796 38.6541 50.7619C38.7537 50.5405 38.8626 50.367 38.9807 50.2416C39.4714 49.7324 39.9142 49.2969 40.3091 48.9353C40.7039 48.57 40.9862 48.3302 41.1559 48.2158C41.4585 48.0017 41.7094 47.7877 41.9087 47.5737C42.1116 47.356 42.2648 47.1346 42.3681 46.9095C42.4751 46.6807 42.5286 46.4575 42.5286 46.2398C42.5286 46.0036 42.4714 45.7933 42.357 45.6088C42.2463 45.4206 42.0932 45.2748 41.8976 45.1715C41.7057 45.0682 41.4954 45.0165 41.2666 45.0165C40.7832 45.0165 40.4032 45.2287 40.1264 45.653C40.0895 45.7084 40.0268 45.8597 39.9382 46.1069C39.8533 46.3542 39.7556 46.5442 39.6449 46.677C39.5378 46.8099 39.3792 46.8763 39.1688 46.8763C38.9843 46.8763 38.8312 46.8154 38.7094 46.6936C38.5877 46.5719 38.5268 46.4058 38.5268 46.1955C38.5268 45.9409 38.584 45.6752 38.6984 45.3984C38.8128 45.1217 38.9825 44.8708 39.2076 44.6457C39.4364 44.4206 39.7242 44.2398 40.071 44.1032C40.4216 43.963 40.8312 43.8929 41.2998 43.8929C41.8644 43.8929 42.3459 43.9815 42.7445 44.1586C43.0028 44.2767 43.2297 44.439 43.4253 44.6457C43.6208 44.8523 43.7721 45.0922 43.8791 45.3652C43.9898 45.6346 44.0452 45.915 44.0452 46.2066C44.0452 46.6641 43.9308 47.0811 43.702 47.4575C43.4769 47.8302 43.2463 48.1235 43.0101 48.3375C42.774 48.5479 42.3773 48.88 41.8201 49.3338C41.2666 49.7877 40.8865 50.1401 40.6799 50.391C40.5913 50.4907 40.5009 50.6106 40.4087 50.7508Z"
      fill="white" />
    <path
      d="M48.5894 51.3541V50.3246H45.8109C45.4603 50.3246 45.1965 50.2453 45.0194 50.0866C44.8459 49.9279 44.7592 49.7121 44.7592 49.439C44.7592 49.3689 44.7721 49.2988 44.798 49.2287C44.8238 49.1549 44.8625 49.0792 44.9142 49.0017C44.9659 48.9206 45.0194 48.8431 45.0747 48.7693C45.1301 48.6955 45.1983 48.6051 45.2795 48.498L48.2131 44.5737C48.4049 44.3154 48.5618 44.1291 48.6835 44.0147C48.809 43.8966 48.9584 43.8376 49.1319 43.8376C49.6928 43.8376 49.9732 44.1586 49.9732 44.8007V49.0848H50.2112C50.4953 49.0848 50.7223 49.1235 50.892 49.201C51.0654 49.2785 51.1522 49.4482 51.1522 49.7102C51.1522 49.9242 51.0821 50.0811 50.9418 50.1807C50.8016 50.2766 50.5913 50.3246 50.3108 50.3246H49.9732V51.3541C49.9732 51.6383 49.9105 51.8504 49.785 51.9906C49.6596 52.1272 49.4917 52.1954 49.2813 52.1954C49.0747 52.1954 48.9068 52.1253 48.7776 51.9851C48.6522 51.8412 48.5894 51.6309 48.5894 51.3541ZM46.2094 49.0848H48.5894V45.8689L46.2094 49.0848Z"
      fill="white" />
    <path
      d="M53.6208 44.7232V46.9648C53.8127 46.7434 53.999 46.5682 54.1798 46.439C54.3643 46.3099 54.5673 46.2139 54.7887 46.1512C55.0101 46.0848 55.2481 46.0516 55.5027 46.0516C55.8864 46.0516 56.2259 46.1328 56.5211 46.2951C56.82 46.4575 57.0543 46.6936 57.2241 47.0036C57.3311 47.1844 57.403 47.3874 57.4399 47.6124C57.4768 47.8338 57.4953 48.0903 57.4953 48.3818V51.2766C57.4953 51.5792 57.4252 51.808 57.285 51.963C57.1484 52.118 56.9658 52.1954 56.737 52.1954C56.2388 52.1954 55.9898 51.8892 55.9898 51.2766V48.725C55.9898 48.2416 55.9178 47.8707 55.7739 47.6124C55.63 47.3505 55.3569 47.2195 54.9547 47.2195C54.6853 47.2195 54.4418 47.2969 54.2241 47.4519C54.0101 47.6032 53.8496 47.8117 53.7426 48.0774C53.6614 48.3025 53.6208 48.7028 53.6208 49.2785V51.2766C53.6208 51.5755 53.5525 51.8043 53.416 51.963C53.2831 52.118 53.0968 52.1954 52.8569 52.1954C52.3588 52.1954 52.1097 51.8892 52.1097 51.2766V44.7232C52.1097 44.4169 52.1743 44.1881 52.3034 44.0368C52.4363 43.8818 52.6208 43.8044 52.8569 43.8044C53.0968 43.8044 53.2831 43.8818 53.416 44.0368C53.5525 44.1918 53.6208 44.4206 53.6208 44.7232Z"
      fill="white" />
  </g>
</svg>
